# xmcd
#
# Track frame offsets:
#	150
#	15956
#	31102
#	45141
#	58597
#	75605
#	91364
#	106127
#	124729
#	139238
#	157605
#	174334
#	189625
#	208114
#	220978
#	237210
#	253028
#	270497
#	283944
#
# Disc length: 3934 seconds
#
# Revision: 8
# Processed by: cddbd v1.5.1PL0 Copyright (c) Steve Scherf et al.
# Submitted via: audiograbber 1.83.01
#
DISCID=f60f5c13
DTITLE=2004-11 Country Radio - 2004-11 Country Radio
DYEAR=2004
DGENRE=Country
TTITLE0=Lee Ann Womack - I May Hate Myself In The Morning
TTITLE1=Alan Jackson - Monday Morning Church
TTITLE2=Kerry Harvick - Cowgirls
TTITLE3=Mark Chesnutt - I'm A Saint
TTITLE4=Jimmy Wayne - Paper Angels
TTITLE5=Andy Griggs - If Heaven
TTITLE6=Craig Morgan - That's What I Love About Sunday
TTITLE7=Gretchen Wilson - When I Think About Cheatin'
TTITLE8=Hank Williams Jr. - Devil In The Bottle
TTITLE9=Julie Roberts - Chance, The
TTITLE10=Randy Travis - Four Walls
TTITLE11=Brad Cotter - I Miss Me
TTITLE12=Amy Dalley - I Would Cry
TTITLE13=David Ball - Louisiana Melody
TTITLE14=David Lee Murphy ft. Lee Roy Parnell - Inspiration
TTITLE15=Rodney Atkins - Monkey In The Middle
TTITLE16=Annie Sims - Doesn't Anybody Love Like That Any More
TTITLE17=Jerry Sartain ft. Rhonda Vincent - Two People In Love
TTITLE18=Scooter Lee - This Love Of Ours
EXTD=
EXTT0=
EXTT1=
EXTT2=
EXTT3=
EXTT4=
EXTT5=
EXTT6=
EXTT7=
EXTT8=
EXTT9=
EXTT10=
EXTT11=
EXTT12=
EXTT13=
EXTT14=
EXTT15=
EXTT16=
EXTT17=
EXTT18=
PLAYORDER=
